<svg xmlns="http://www.w3.org/2000/svg" width="259.51" height="259.51" viewBox="0 0 259.51 259.51"><path fill="#0b1a2e" d="M13,259.51h31.64c11.58,0,17.38-14,9.19-22.18l-31.64-31.64c-8.19-8.19-22.18-2.39-22.18,9.19v31.64c0,7.18,5.82,13,13,13Z"/><path fill="#0b1a2e" d="M0,13v31.64c0,11.58,14,17.38,22.18,9.19l31.64-31.64C62.01,14,56.21,0,44.63,0H13C5.82,0,0,5.82,0,13Z"/><path fill="#0b1a2e" d="M242.79,0h-75.43c-3.45,0-6.75,1.37-9.19,3.81L41.53,120.45c-5.07,5.07-5.08,13.29-.01,18.37l56.46,56.59c5.07,5.09,13.31,5.09,18.39.01l15.01-15.01c5.08-5.08,5.08-13.3,0-18.38l-23.12-23.12c-5.08-5.08-5.08-13.3,0-18.38l77.9-77.9c5.08-5.08,13.32-5.07,18.39.01l32.77,32.84c8.18,8.2,22.2,2.41,22.2-9.18V13C259.51,5.82,253.69,0,246.51,0h-3.72Z"/><path fill="#0b1a2e" d="M186.11,113.08l-14.96,14.96c-5.08,5.08-5.08,13.3,0,18.38l22.98,22.98c5.08,5.08,5.08,13.3,0,18.38l-49.55,49.55c-8.19,8.19-2.39,22.18,9.19,22.18h92.75c7.18,0,13-5.82,13-13v-72.37c0-3.42-1.35-6.7-3.75-9.13l-51.21-51.88c-5.07-5.13-13.34-5.16-18.44-.06Z"/></svg>